<mxfile host="app.diagrams.net" modified="2021-07-26T11:10:26.118Z" agent="5.0 (Macintosh; Intel Mac OS X 10_15_7) AppleWebKit/537.36 (KHTML, like Gecko) Chrome/92.0.4515.107 Safari/537.36" etag="bH9-zrhLFt_g0m4-L2F1" version="14.9.2" type="github">
  <diagram id="sXxc-USiPynXxVxldOQo" name="第 1 页">
    <mxGraphModel dx="946" dy="589" grid="1" gridSize="10" guides="1" tooltips="1" connect="1" arrows="1" fold="1" page="1" pageScale="1" pageWidth="827" pageHeight="1169" math="0" shadow="0">
      <root>
        <mxCell id="0" />
        <mxCell id="1" parent="0" />
        <mxCell id="J6XE2V9fyN6BngksWBQa-7" value="" style="edgeStyle=orthogonalEdgeStyle;rounded=0;orthogonalLoop=1;jettySize=auto;html=1;" edge="1" parent="1" source="J6XE2V9fyN6BngksWBQa-1" target="J6XE2V9fyN6BngksWBQa-2">
          <mxGeometry relative="1" as="geometry" />
        </mxCell>
        <mxCell id="J6XE2V9fyN6BngksWBQa-1" value="Html 5 (Canvas)" style="rounded=1;whiteSpace=wrap;html=1;fillColor=#dae8fc;strokeColor=#6c8ebf;" vertex="1" parent="1">
          <mxGeometry x="180" y="70" width="260" height="60" as="geometry" />
        </mxCell>
        <mxCell id="J6XE2V9fyN6BngksWBQa-8" style="edgeStyle=orthogonalEdgeStyle;rounded=0;orthogonalLoop=1;jettySize=auto;html=1;exitX=0.25;exitY=1;exitDx=0;exitDy=0;" edge="1" parent="1" source="J6XE2V9fyN6BngksWBQa-2" target="J6XE2V9fyN6BngksWBQa-3">
          <mxGeometry relative="1" as="geometry" />
        </mxCell>
        <mxCell id="J6XE2V9fyN6BngksWBQa-9" style="edgeStyle=orthogonalEdgeStyle;rounded=0;orthogonalLoop=1;jettySize=auto;html=1;exitX=0.75;exitY=1;exitDx=0;exitDy=0;entryX=0.5;entryY=0;entryDx=0;entryDy=0;" edge="1" parent="1" source="J6XE2V9fyN6BngksWBQa-2" target="J6XE2V9fyN6BngksWBQa-4">
          <mxGeometry relative="1" as="geometry" />
        </mxCell>
        <mxCell id="J6XE2V9fyN6BngksWBQa-2" value="Node.js" style="rounded=1;whiteSpace=wrap;html=1;fillColor=#fff2cc;strokeColor=#d6b656;" vertex="1" parent="1">
          <mxGeometry x="180" y="155" width="260" height="60" as="geometry" />
        </mxCell>
        <mxCell id="J6XE2V9fyN6BngksWBQa-3" value="RTC SDK" style="rounded=1;whiteSpace=wrap;html=1;fillColor=#d5e8d4;strokeColor=#82b366;" vertex="1" parent="1">
          <mxGeometry x="185" y="250" width="120" height="100" as="geometry" />
        </mxCell>
        <mxCell id="J6XE2V9fyN6BngksWBQa-6" value="" style="edgeStyle=orthogonalEdgeStyle;rounded=0;orthogonalLoop=1;jettySize=auto;html=1;" edge="1" parent="1" source="J6XE2V9fyN6BngksWBQa-4" target="J6XE2V9fyN6BngksWBQa-5">
          <mxGeometry relative="1" as="geometry" />
        </mxCell>
        <mxCell id="J6XE2V9fyN6BngksWBQa-4" value="RC SDK" style="rounded=1;whiteSpace=wrap;html=1;fillColor=#ffe6cc;strokeColor=#d79b00;" vertex="1" parent="1">
          <mxGeometry x="320" y="250" width="120" height="40" as="geometry" />
        </mxCell>
        <mxCell id="J6XE2V9fyN6BngksWBQa-5" value="RTM SDK" style="rounded=1;whiteSpace=wrap;html=1;fillColor=#e1d5e7;strokeColor=#9673a6;" vertex="1" parent="1">
          <mxGeometry x="320" y="305" width="120" height="40" as="geometry" />
        </mxCell>
        <mxCell id="J6XE2V9fyN6BngksWBQa-13" value="" style="rounded=0;orthogonalLoop=1;jettySize=auto;html=1;dashed=1;endArrow=none;endFill=0;" edge="1" parent="1" source="J6XE2V9fyN6BngksWBQa-10" target="J6XE2V9fyN6BngksWBQa-1">
          <mxGeometry relative="1" as="geometry" />
        </mxCell>
        <mxCell id="J6XE2V9fyN6BngksWBQa-10" value="Mouse Events Hijack&lt;br&gt;Keyboard Events Hijack&lt;br&gt;Resize Events Hijack&lt;br&gt;Touchbar Events Hijack&lt;br&gt;..." style="text;html=1;strokeColor=none;fillColor=none;align=left;verticalAlign=middle;whiteSpace=wrap;rounded=0;" vertex="1" parent="1">
          <mxGeometry x="490" y="68" width="186" height="63" as="geometry" />
        </mxCell>
        <mxCell id="J6XE2V9fyN6BngksWBQa-14" value="JsBridge&lt;br&gt;Node extension (Nan &amp;amp; Napi)&lt;br&gt;..." style="text;html=1;strokeColor=none;fillColor=none;align=left;verticalAlign=middle;whiteSpace=wrap;rounded=0;" vertex="1" parent="1">
          <mxGeometry x="490" y="154" width="186" height="63" as="geometry" />
        </mxCell>
        <mxCell id="J6XE2V9fyN6BngksWBQa-15" value="" style="rounded=0;orthogonalLoop=1;jettySize=auto;html=1;dashed=1;endArrow=none;endFill=0;entryX=1;entryY=0.5;entryDx=0;entryDy=0;exitX=0;exitY=0.5;exitDx=0;exitDy=0;" edge="1" parent="1" source="J6XE2V9fyN6BngksWBQa-14" target="J6XE2V9fyN6BngksWBQa-2">
          <mxGeometry relative="1" as="geometry">
            <mxPoint x="500" y="109.67032967032969" as="sourcePoint" />
            <mxPoint x="450" y="109.76190476190482" as="targetPoint" />
          </mxGeometry>
        </mxCell>
        <mxCell id="J6XE2V9fyN6BngksWBQa-16" value="A&amp;amp;V&lt;br&gt;Screenshare&lt;br&gt;..." style="text;html=1;strokeColor=none;fillColor=none;align=left;verticalAlign=middle;whiteSpace=wrap;rounded=0;" vertex="1" parent="1">
          <mxGeometry x="57" y="268" width="90" height="63" as="geometry" />
        </mxCell>
        <mxCell id="J6XE2V9fyN6BngksWBQa-17" value="" style="rounded=0;orthogonalLoop=1;jettySize=auto;html=1;dashed=1;endArrow=none;endFill=0;entryX=1;entryY=0.5;entryDx=0;entryDy=0;exitX=0;exitY=0.5;exitDx=0;exitDy=0;" edge="1" parent="1" source="J6XE2V9fyN6BngksWBQa-3" target="J6XE2V9fyN6BngksWBQa-16">
          <mxGeometry relative="1" as="geometry">
            <mxPoint x="500" y="195.5" as="sourcePoint" />
            <mxPoint x="450" y="195" as="targetPoint" />
          </mxGeometry>
        </mxCell>
        <mxCell id="J6XE2V9fyN6BngksWBQa-19" value="Keys mapping&lt;br&gt;Coordinates consistence&lt;br&gt;Instruction bufferring&lt;br&gt;Encryption &amp;amp; Decryption&lt;br&gt;..." style="text;html=1;strokeColor=none;fillColor=none;align=left;verticalAlign=middle;whiteSpace=wrap;rounded=0;" vertex="1" parent="1">
          <mxGeometry x="490" y="238.5" width="186" height="63" as="geometry" />
        </mxCell>
        <mxCell id="J6XE2V9fyN6BngksWBQa-20" value="" style="rounded=0;orthogonalLoop=1;jettySize=auto;html=1;dashed=1;endArrow=none;endFill=0;entryX=1;entryY=0.5;entryDx=0;entryDy=0;exitX=0;exitY=0.5;exitDx=0;exitDy=0;" edge="1" parent="1" source="J6XE2V9fyN6BngksWBQa-19" target="J6XE2V9fyN6BngksWBQa-4">
          <mxGeometry relative="1" as="geometry">
            <mxPoint x="500" y="195.5" as="sourcePoint" />
            <mxPoint x="450" y="195" as="targetPoint" />
          </mxGeometry>
        </mxCell>
        <mxCell id="J6XE2V9fyN6BngksWBQa-21" value="Data transporting&lt;br&gt;Peer state notification&lt;br&gt;..." style="text;html=1;strokeColor=none;fillColor=none;align=left;verticalAlign=middle;whiteSpace=wrap;rounded=0;" vertex="1" parent="1">
          <mxGeometry x="490" y="331" width="186" height="63" as="geometry" />
        </mxCell>
        <mxCell id="J6XE2V9fyN6BngksWBQa-22" value="" style="rounded=0;orthogonalLoop=1;jettySize=auto;html=1;dashed=1;endArrow=none;endFill=0;entryX=1;entryY=1;entryDx=0;entryDy=0;exitX=0;exitY=0.5;exitDx=0;exitDy=0;" edge="1" parent="1" source="J6XE2V9fyN6BngksWBQa-21" target="J6XE2V9fyN6BngksWBQa-5">
          <mxGeometry relative="1" as="geometry">
            <mxPoint x="500" y="280" as="sourcePoint" />
            <mxPoint x="450" y="280" as="targetPoint" />
          </mxGeometry>
        </mxCell>
      </root>
    </mxGraphModel>
  </diagram>
</mxfile>
